<svg xmlns="http://www.w3.org/2000/svg" width="18" height="18" viewBox="0 0 18 18"><path d="M32.509-1268.349a.6.6,0,0,0-.18-.429l-.9-.932a.562.562,0,0,0-.415-.186.562.562,0,0,0-.415.186l-7.088,7.323-7.088-7.323a.562.562,0,0,0-.415-.186.562.562,0,0,0-.415.186l-.9.932a.6.6,0,0,0-.18.429.6.6,0,0,0,.18.429l8.4,8.683a.562.562,0,0,0,.415.186.562.562,0,0,0,.415-.186l8.4-8.683A.6.6,0,0,0,32.509-1268.349Zm0,7.156a.6.6,0,0,0-.18-.429l-.9-.931a.561.561,0,0,0-.415-.186.561.561,0,0,0-.415.186l-7.088,7.323-7.088-7.323a.561.561,0,0,0-.415-.186.561.561,0,0,0-.415.186l-.9.931a.6.6,0,0,0-.18.429.6.6,0,0,0,.18.429l8.4,8.683a.562.562,0,0,0,.415.186.562.562,0,0,0,.415-.186l8.4-8.683A.6.6,0,0,0,32.509-1261.193Z" transform="translate(-14.509 1269.895)" fill="#fff"/></svg>