<svg xmlns="http://www.w3.org/2000/svg" width="50" height="50" viewBox="0 0 50 50"><path d="M33.333,25A8.336,8.336,0,0,0,25,16.667,8.336,8.336,0,0,0,16.667,25,8.336,8.336,0,0,0,25,33.333,8.336,8.336,0,0,0,33.333,25Zm4.492,0A12.78,12.78,0,0,1,25,37.825,12.78,12.78,0,0,1,12.175,25,12.78,12.78,0,0,1,25,12.175,12.78,12.78,0,0,1,37.825,25ZM41.34,11.654a2.994,2.994,0,1,1-5.11-2.115,2.994,2.994,0,0,1,5.11,2.115ZM25,4.492q-.228,0-2.49-.017t-3.435,0q-1.172.017-3.142.1a25.671,25.671,0,0,0-3.353.325,12.937,12.937,0,0,0-2.326.6A8.514,8.514,0,0,0,5.5,10.254a13.063,13.063,0,0,0-.6,2.328,25.671,25.671,0,0,0-.325,3.353q-.081,1.969-.1,3.142t0,3.435q.017,2.262.017,2.49t-.017,2.49q-.017,2.263,0,3.435t.1,3.142A25.671,25.671,0,0,0,4.9,37.421a12.985,12.985,0,0,0,.6,2.325A8.514,8.514,0,0,0,10.254,44.5a13.063,13.063,0,0,0,2.328.6,25.672,25.672,0,0,0,3.353.325q1.969.081,3.142.1t3.435,0q2.262-.017,2.49-.017t2.49.017q2.263.017,3.435,0t3.142-.1a25.669,25.669,0,0,0,3.353-.325,13.064,13.064,0,0,0,2.328-.6A8.514,8.514,0,0,0,44.5,39.746a13.063,13.063,0,0,0,.6-2.328,25.672,25.672,0,0,0,.325-3.353q.081-1.969.1-3.142t0-3.435Q45.51,25.226,45.51,25t.017-2.49q.017-2.262,0-3.435t-.1-3.142a25.67,25.67,0,0,0-.325-3.353,12.813,12.813,0,0,0-.606-2.325A8.514,8.514,0,0,0,39.746,5.5a13.063,13.063,0,0,0-2.328-.6,25.671,25.671,0,0,0-3.353-.325q-1.969-.081-3.142-.1t-3.435,0q-2.263.017-2.49.017ZM50,25q0,7.454-.163,10.319Q49.512,42.09,45.8,45.8T35.319,49.837Q32.454,50,25,50t-10.319-.163Q7.91,49.512,4.2,45.8T.162,35.319Q0,32.454,0,25T.162,14.681Q.487,7.91,4.2,4.2T14.681.162Q17.546,0,25,0T35.319.162Q42.09.487,45.8,4.2t4.036,10.482Q50,17.546,50,25Z" fill="#fff"/></svg>