<svg xmlns="http://www.w3.org/2000/svg" width="50" height="38.135" viewBox="0 0 50 38.135"><path d="M21.069,22.721a6.372,6.372,0,0,0-1.94-4.675A6.379,6.379,0,0,0,14.453,16.1a6.321,6.321,0,0,0-4.663,1.94,6.41,6.41,0,0,0-1.929,4.676A6.335,6.335,0,0,0,9.79,27.384a6.365,6.365,0,0,0,4.663,1.929,6.392,6.392,0,0,0,4.675-1.929A6.32,6.32,0,0,0,21.069,22.721ZM42.139,22.7a6.6,6.6,0,0,0-11.267-4.663,6.6,6.6,0,0,0,0,9.35A6.6,6.6,0,0,0,42.139,22.7ZM50,2.945v32.91a2.514,2.514,0,0,1-.769,1.843,2.547,2.547,0,0,1-1.867.771H2.636A2.543,2.543,0,0,1,.768,37.7,2.509,2.509,0,0,1,0,35.856V2.946A2.514,2.514,0,0,1,.769,1.1,2.542,2.542,0,0,1,2.636.334H13.158a2.556,2.556,0,0,1,1.856.769A2.5,2.5,0,0,1,15.8,2.947V6.877H34.2V2.946A2.5,2.5,0,0,1,34.986,1.1,2.556,2.556,0,0,1,36.842.334H47.364a2.543,2.543,0,0,1,1.868.769A2.509,2.509,0,0,1,50,2.946Z" transform="translate(0 -0.334)" fill="#2c2738" opacity="0.8"/></svg>