<svg xmlns="http://www.w3.org/2000/svg" width="55" height="55" viewBox="0 0 55 55"><path d="M36.493,40.115,41,18.845a2.025,2.025,0,0,0-.322-1.934A1.4,1.4,0,0,0,39.1,16.7L12.584,26.916a2.69,2.69,0,0,0-1.213.767.662.662,0,0,0-.076.813,1.677,1.677,0,0,0,.982.6l6.783,2.118L34.806,21.3q.645-.429.982-.185.215.153-.122.46L22.929,33.083l-.49,7A1.97,1.97,0,0,0,23.82,39.4l3.315-3.192,6.875,5.065q1.965,1.1,2.486-1.166ZM55,27.5a26.889,26.889,0,0,1-2.179,10.681A27.016,27.016,0,0,1,38.181,52.821a27.27,27.27,0,0,1-21.361,0A27.016,27.016,0,0,1,2.179,38.181a27.27,27.27,0,0,1,0-21.361A27.016,27.016,0,0,1,16.819,2.179a27.27,27.27,0,0,1,21.361,0A27.016,27.016,0,0,1,52.821,16.819,26.889,26.889,0,0,1,55,27.5Z" fill="#fff"/></svg>